{
  "source": "C:\\Users\\Peter\\Desktop\\stuff\\MIUN\\quantitative_research\\video_compression\\videos\\BVI-HD\\BVI-HD_CDVL_videos\\ORIG\\Surfers_1920x1080_30fps.mp4",
  "output": "C:\\Users\\Peter\\Desktop\\stuff\\MIUN\\quantitative_research\\video_compression\\compressed_videos\\BVI-HD\\h264\\2.5\\Surfers_1920x1080_30fps_h264.mp4",
  "codec": "h264",
  "ok": "Input #0, mov,mp4,m4a,3gp,3g2,mj2, from 'C:\\Users\\Peter\\Desktop\\stuff\\MIUN\\quantitative_research\\video_compression\\videos\\BVI-HD\\BVI-HD_CDVL_videos\\ORIG\\Surfers_1920x1080_30fps.mp4':\n  Metadata:\n    major_brand     : isom\n    minor_version   : 512\n    compatible_brands: isomiso2avc1mp41\n    encoder         : Lavf54.28.101\n  Duration: 00:00:05.00, start: 0.000000, bitrate: 232762 kb/s\n  Stream #0:0[0x1](und): Video: h264 (High 4:4:4 Predictive) (avc1 / 0x31637661), yuv420p(progressive), 1920x1080, 232759 kb/s, 30 fps, 30 tbr, 30 tbn (default)\n    Metadata:\n      handler_name    : VideoHandler\n      vendor_id       : [0][0][0][0]\n[out#0/mp4 @ 000002bef8819cc0] Codec AVOption b:a (set bitrate (in bits/s)) has not been used for any stream. The most likely reason is either wrong type (e.g. a video option with no video streams) or that it is a private option of some decoder which was not actually used for any stream.\nStream mapping:\n  Stream #0:0 -> #0:0 (h264 (native) -> h264 (libx264))\nPress [q] to stop, [?] for help\n[libx264 @ 000002bef8df0ac0] using cpu capabilities: MMX2 SSE2Fast SSSE3 SSE4.2 AVX FMA3 BMI2 AVX2\n[libx264 @ 000002bef8df0ac0] profile High, level 5.0, 4:2:0, 8-bit\n[libx264 @ 000002bef8df0ac0] 264 - core 165 r3222 b35605a - H.264/MPEG-4 AVC codec - Copyleft 2003-2025 - http://www.videolan.org/x264.html - options: cabac=1 ref=5 deblock=1:0:0 analyse=0x3:0x113 me=hex subme=8 psy=1 psy_rd=1.00:0.00 mixed_ref=1 me_range=16 chroma_me=1 trellis=2 8x8dct=1 cqm=0 deadzone=21,11 fast_pskip=1 chroma_qp_offset=-2 threads=18 lookahead_threads=3 sliced_threads=0 nr=0 decimate=1 interlaced=0 bluray_compat=0 constrained_intra=0 bframes=3 b_pyramid=2 b_adapt=1 b_bias=0 direct=3 weightb=1 open_gop=0 weightp=2 keyint=250 keyint_min=25 scenecut=40 intra_refresh=0 rc_lookahead=50 rc=cbr mbtree=1 bitrate=2500 ratetol=1.0 qcomp=0.60 qpmin=0 qpmax=69 qpstep=4 vbv_maxrate=2500 vbv_bufsize=2500 nal_hrd=none filler=0 ip_ratio=1.40 aq=1:1.00\nOutput #0, mp4, to 'C:\\Users\\Peter\\Desktop\\stuff\\MIUN\\quantitative_research\\video_compression\\compressed_videos\\BVI-HD\\h264\\2.5\\Surfers_1920x1080_30fps_h264.mp4':\n  Metadata:\n    major_brand     : isom\n    minor_version   : 512\n    compatible_brands: isomiso2avc1mp41\n    encoder         : Lavf62.3.100\n  Stream #0:0(und): Video: h264 (avc1 / 0x31637661), yuv420p(tv, progressive), 1920x1080, q=2-31, 2500 kb/s, 30 fps, 15360 tbn (default)\n    Metadata:\n      encoder         : Lavc62.11.100 libx264\n      handler_name    : VideoHandler\n      vendor_id       : [0][0][0][0]\n    Side data:\n      cpb: bitrate max/min/avg: 2500000/0/2500000 buffer size: 2500000 vbv_delay: N/A\nframe=    0 fps=0.0 q=0.0 size=       0KiB time=N/A bitrate=N/A speed=N/A elapsed=0:00:00.52    \nframe=    0 fps=0.0 q=0.0 size=       0KiB time=N/A bitrate=N/A speed=N/A elapsed=0:00:01.11    \nframe=   13 fps=7.9 q=38.0 size=       0KiB time=00:00:00.36 bitrate=   1.0kbits/s speed=0.224x elapsed=0:00:01.63    \nframe=   31 fps= 14 q=38.0 size=       0KiB time=00:00:00.93 bitrate=   0.4kbits/s speed=0.43x elapsed=0:00:02.17    \nframe=   53 fps= 19 q=38.0 size=     256KiB time=00:00:01.66 bitrate=1258.5kbits/s speed=0.613x elapsed=0:00:02.71    \nframe=   61 fps= 18 q=38.0 size=     512KiB time=00:00:01.96 bitrate=2132.9kbits/s speed=0.596x elapsed=0:00:03.29    \nframe=   95 fps= 25 q=38.0 size=     768KiB time=00:00:03.10 bitrate=2029.6kbits/s speed=0.813x elapsed=0:00:03.81    \nframe=  130 fps= 30 q=38.0 size=    1024KiB time=00:00:04.16 bitrate=2013.4kbits/s speed=0.961x elapsed=0:00:04.33    \n[mp4 @ 000002bef8821300] Starting second pass: moving the moov atom to the beginning of the file\n[out#0/mp4 @ 000002bef8819cc0] video:1485KiB audio:0KiB subtitle:0KiB other streams:0KiB global headers:0KiB muxing overhead: 0.174070%\nframe=  150 fps= 33 q=-1.0 Lsize=    1488KiB time=00:00:04.93 bitrate=2470.2kbits/s speed=1.07x elapsed=0:00:04.59    \n[libx264 @ 000002bef8df0ac0] frame I:2     Avg QP:33.27  size: 23656\n[libx264 @ 000002bef8df0ac0] frame P:41    Avg QP:35.91  size: 17540\n[libx264 @ 000002bef8df0ac0] frame B:107   Avg QP:37.82  size:  7042\n[libx264 @ 000002bef8df0ac0] consecutive B-frames:  2.7%  4.0%  8.0% 85.3%\n[libx264 @ 000002bef8df0ac0] mb I  I16..4: 52.5% 45.4%  2.0%\n[libx264 @ 000002bef8df0ac0] mb P  I16..4:  7.4%  9.2%  0.3%  P16..4: 34.3%  4.6%  2.2%  0.0%  0.0%    skip:41.8%\n[libx264 @ 000002bef8df0ac0] mb B  I16..4:  0.4%  0.6%  0.0%  B16..8: 36.1%  2.4%  0.2%  direct: 2.1%  skip:58.3%  L0:44.7% L1:51.4% BI: 3.9%\n[libx264 @ 000002bef8df0ac0] 8x8 transform intra:53.2% inter:91.8%\n[libx264 @ 000002bef8df0ac0] direct mvs  spatial:91.6% temporal:8.4%\n[libx264 @ 000002bef8df0ac0] coded y,uvDC,uvAC intra: 33.5% 15.0% 0.2% inter: 9.2% 2.0% 0.0%\n[libx264 @ 000002bef8df0ac0] i16 v,h,dc,p:  5% 71%  4% 20%\n[libx264 @ 000002bef8df0ac0] i8 v,h,dc,ddl,ddr,vr,hd,vl,hu:  2% 32% 12%  3%  6%  3% 20%  3% 20%\n[libx264 @ 000002bef8df0ac0] i4 v,h,dc,ddl,ddr,vr,hd,vl,hu:  2% 30%  5%  3%  8%  5% 20%  4% 23%\n[libx264 @ 000002bef8df0ac0] i8c dc,h,v,p: 58% 40%  1%  1%\n[libx264 @ 000002bef8df0ac0] Weighted P-Frames: Y:0.0% UV:0.0%\n[libx264 @ 000002bef8df0ac0] ref P L0: 48.8% 10.7% 20.1% 10.4%  9.8%  0.2%\n[libx264 @ 000002bef8df0ac0] ref B L0: 78.8% 13.1%  6.3%  1.8%\n[libx264 @ 000002bef8df0ac0] ref B L1: 93.2%  6.8%\n[libx264 @ 000002bef8df0ac0] kb/s:2431.83\n",
  "seconds": 4.826494455337524,
  "probe_out": {}
}